REM DIRINDEX 1\2\5,1\2\6,1\2\7,1\2\8,1\3\9,1\3\10,1\3\11,1\4\12,1\4\13,1\4\14,1\4\15,1\4\16
REM DIRNAME folder01,folder02,folder03,folder04,folder05,folder06,folder07,folder08,folder09,folder10,folder11,folder12,folder13,folder14,folder15,folder16
TITLE ""
FILE "1200_sec04_1430_1438.mp3" MP3
  TRACK 01 AUDIO
    TITLE "0:"
    INDEX 01 00:00:00
  TRACK 02 AUDIO
    TITLE "12:cjc034_09460"
    INDEX 01 00:00:19
  TRACK 03 AUDIO
    TITLE "0:"
    INDEX 01 00:01:46
  TRACK 04 AUDIO
    TITLE "13:cjc034_09461"
    INDEX 01 00:02:06
  TRACK 05 AUDIO
    TITLE "0:"
    INDEX 01 00:04:54
  TRACK 06 AUDIO
    TITLE "14:cjc034_09462"
    INDEX 01 00:05:14
  TRACK 07 AUDIO
    TITLE "0:"
    INDEX 01 00:06:43
  TRACK 08 AUDIO
    TITLE "15:cjc034_09463"
    INDEX 01 00:07:02
  TRACK 09 AUDIO
    TITLE "0:"
    INDEX 01 00:10:43
  TRACK 10 AUDIO
    TITLE "12:cjc034_09464"
    INDEX 01 00:12:01
  TRACK 11 AUDIO
    TITLE "0:"
    INDEX 01 00:13:49
  TRACK 12 AUDIO
    TITLE "13:cjc034_09465"
    INDEX 01 00:14:09
  TRACK 13 AUDIO
    TITLE "0:"
    INDEX 01 00:15:25
  TRACK 14 AUDIO
    TITLE "14:cjc034_09466"
    INDEX 01 00:15:62
  TRACK 15 AUDIO
    TITLE "0:"
    INDEX 01 00:17:37
  TRACK 16 AUDIO
    TITLE "15:cjc034_09467"
    INDEX 01 00:17:70
  TRACK 17 AUDIO
    TITLE "0:"
    INDEX 01 00:22:07
  TRACK 18 AUDIO
    TITLE "12:cjc034_09468"
    INDEX 01 00:23:40
  TRACK 19 AUDIO
    TITLE "0:"
    INDEX 01 00:26:64
  TRACK 20 AUDIO
    TITLE "13:cjc034_09469"
    INDEX 01 00:27:30
  TRACK 21 AUDIO
    TITLE "0:"
    INDEX 01 00:30:24
  TRACK 22 AUDIO
    TITLE "14:cjc034_09470"
    INDEX 01 00:30:57
  TRACK 23 AUDIO
    TITLE "0:"
    INDEX 01 00:34:06
  TRACK 24 AUDIO
    TITLE "15:cjc034_09471"
    INDEX 01 00:34:47
  TRACK 25 AUDIO
    TITLE "0:"
    INDEX 01 00:39:15
  TRACK 26 AUDIO
    TITLE "12:cjc034_09472"
    INDEX 01 00:40:48
  TRACK 27 AUDIO
    TITLE "0:"
    INDEX 01 00:42:55
  TRACK 28 AUDIO
    TITLE "13:cjc034_09473"
    INDEX 01 00:43:13
  TRACK 29 AUDIO
    TITLE "0:"
    INDEX 01 00:45:30
  TRACK 30 AUDIO
    TITLE "14:cjc034_09474"
    INDEX 01 00:45:63
  TRACK 31 AUDIO
    TITLE "0:"
    INDEX 01 00:47:70
  TRACK 32 AUDIO
    TITLE "15:cjc034_09475"
    INDEX 01 00:48:28
  TRACK 33 AUDIO
    TITLE "0:"
    INDEX 01 00:53:06
  TRACK 34 AUDIO
    TITLE "16:cjc034_09476"
    INDEX 01 00:54:40
  TRACK 35 AUDIO
    TITLE "0:"
    INDEX 01 00:59:08
  TRACK 36 AUDIO
    TITLE "12:cjc034_09477"
    INDEX 01 01:00:13
  TRACK 37 AUDIO
    TITLE "0:"
    INDEX 01 01:04:01
  TRACK 38 AUDIO
    TITLE "13:cjc034_09478"
    INDEX 01 01:04:33
  TRACK 39 AUDIO
    TITLE "0:"
    INDEX 01 01:07:49
  TRACK 40 AUDIO
    TITLE "14:cjc034_09479"
    INDEX 01 01:08:11
  TRACK 41 AUDIO
    TITLE "0:"
    INDEX 01 01:11:72
  TRACK 42 AUDIO
    TITLE "15:cjc034_09480"
    INDEX 01 01:12:30
  TRACK 43 AUDIO
    TITLE "0:"
    INDEX 01 01:17:73
  TRACK 44 AUDIO
    TITLE "12:cjc034_09481"
    INDEX 01 01:19:32
  TRACK 45 AUDIO
    TITLE "0:"
    INDEX 01 01:21:72
  TRACK 46 AUDIO
    TITLE "13:cjc034_09482"
    INDEX 01 01:22:29
  TRACK 47 AUDIO
    TITLE "0:"
    INDEX 01 01:24:49
  TRACK 48 AUDIO
    TITLE "14:cjc034_09483"
    INDEX 01 01:25:08
  TRACK 49 AUDIO
    TITLE "0:"
    INDEX 01 01:27:51
  TRACK 50 AUDIO
    TITLE "15:cjc034_09484"
    INDEX 01 01:28:08
  TRACK 51 AUDIO
    TITLE "0:"
    INDEX 01 01:32:37
  TRACK 52 AUDIO
    TITLE "12:cjc034_09485"
    INDEX 01 01:34:03
  TRACK 53 AUDIO
    TITLE "0:"
    INDEX 01 01:36:31
  TRACK 54 AUDIO
    TITLE "13:cjc034_09486"
    INDEX 01 01:36:64
  TRACK 55 AUDIO
    TITLE "0:"
    INDEX 01 01:39:06
  TRACK 56 AUDIO
    TITLE "14:cjc034_09487"
    INDEX 01 01:39:41
  TRACK 57 AUDIO
    TITLE "0:"
    INDEX 01 01:41:71
  TRACK 58 AUDIO
    TITLE "15:cjc034_09488"
    INDEX 01 01:42:28
  TRACK 59 AUDIO
    TITLE "0:"
    INDEX 01 01:46:10
  TRACK 60 AUDIO
    TITLE "12:cjc034_09489"
    INDEX 01 01:47:42
  TRACK 61 AUDIO
    TITLE "0:"
    INDEX 01 01:51:48
  TRACK 62 AUDIO
    TITLE "13:cjc034_09490"
    INDEX 01 01:52:08
  TRACK 63 AUDIO
    TITLE "0:"
    INDEX 01 01:55:36
  TRACK 64 AUDIO
    TITLE "14:cjc034_09491"
    INDEX 01 01:55:73
  TRACK 65 AUDIO
    TITLE "0:"
    INDEX 01 02:00:04
  TRACK 66 AUDIO
    TITLE "15:cjc034_09492"
    INDEX 01 02:00:37
  TRACK 67 AUDIO
    TITLE "0:"
    INDEX 01 02:05:09
  TRACK 68 AUDIO
    TITLE "12:cjc034_09493"
    INDEX 01 02:06:42
  TRACK 69 AUDIO
    TITLE "0:"
    INDEX 01 02:08:00
  TRACK 70 AUDIO
    TITLE "13:cjc034_09494"
    INDEX 01 02:08:33
  TRACK 71 AUDIO
    TITLE "0:"
    INDEX 01 02:09:40
  TRACK 72 AUDIO
    TITLE "14:cjc034_09495"
    INDEX 01 02:09:69
  TRACK 73 AUDIO
    TITLE "0:"
    INDEX 01 02:11:27
  TRACK 74 AUDIO
    TITLE "15:cjc034_09496"
    INDEX 01 02:11:59
  TRACK 75 AUDIO
    TITLE "0:"
    INDEX 01 02:15:64
